<svg id="Capa_1" enable-background="new 0 0 512 512" height="512" viewBox="0 0 512 512" width="512" xmlns="http://www.w3.org/2000/svg"><g><path d="m497 482h-16v-210h16c8.284 0 15-6.716 15-15s-6.716-15-15-15h-136v-90h15c8.284 0 15-6.716 15-15s-6.716-15-15-15h-105v-32h65c11.98 0 19.126-13.352 12.481-23.321l-14.453-21.679 14.453-21.68c6.645-9.968-.501-23.32-12.481-23.32h-80c-8.284 0-15 6.716-15 15v107h-105c-8.284 0-15 6.716-15 15s6.716 15 15 15h15v90h-136c-8.284 0-15 6.716-15 15s6.716 15 15 15h16v210h-16c-8.284 0-15 6.716-15 15s6.716 15 15 15h482c8.284 0 15-6.716 15-15s-6.716-15-15-15zm-226-452h36.972l-4.453 6.679c-3.359 5.039-3.359 11.603 0 16.641l4.453 6.68h-36.972zm180 242v210h-90v-210zm-120-120v330h-30v-45c0-8.284-6.716-15-15-15h-60c-8.284 0-15 6.716-15 15v45h-30v-330zm-60 330h-30v-30h30zm-210-210h90v210h-90z"/><path d="m406 452c8.284 0 15-6.716 15-15v-30c0-8.284-6.716-15-15-15s-15 6.716-15 15v30c0 8.284 6.716 15 15 15z"/><path d="m406 362c8.284 0 15-6.716 15-15v-30c0-8.284-6.716-15-15-15s-15 6.716-15 15v30c0 8.284 6.716 15 15 15z"/><path d="m106 392c-8.284 0-15 6.716-15 15v30c0 8.284 6.716 15 15 15s15-6.716 15-15v-30c0-8.284-6.716-15-15-15z"/><path d="m106 302c-8.284 0-15 6.716-15 15v30c0 8.284 6.716 15 15 15s15-6.716 15-15v-30c0-8.284-6.716-15-15-15z"/><path d="m226 392c8.284 0 15-6.716 15-15v-30c0-8.284-6.716-15-15-15s-15 6.716-15 15v30c0 8.284 6.716 15 15 15z"/><path d="m286 332c-8.284 0-15 6.716-15 15v30c0 8.284 6.716 15 15 15s15-6.716 15-15v-30c0-8.284-6.716-15-15-15z"/><path d="m226 302c8.284 0 15-6.716 15-15v-30c0-8.284-6.716-15-15-15s-15 6.716-15 15v30c0 8.284 6.716 15 15 15z"/><path d="m226 212h60c8.284 0 15-6.716 15-15s-6.716-15-15-15h-60c-8.284 0-15 6.716-15 15s6.716 15 15 15z"/><path d="m286 242c-8.284 0-15 6.716-15 15v30c0 8.284 6.716 15 15 15s15-6.716 15-15v-30c0-8.284-6.716-15-15-15z"/></g></svg>