<svg id="Capa_1" enable-background="new 0 0 512.02 512.02" height="512" viewBox="0 0 512.02 512.02" width="512" xmlns="http://www.w3.org/2000/svg"><g><path d="m296.01 40.005c0-22.056-17.944-40-40-40s-40 17.944-40 40 17.944 40 40 40 40-17.944 40-40zm-40 20c-11.028 0-20-8.972-20-20s8.972-20 20-20 20 8.972 20 20-8.972 20-20 20z"/><path d="m9.367 497.711c14.188 16.92 39.399 19.161 56.348 4.937 16.935-14.202 19.154-39.409 4.937-56.348-14.205-16.94-39.409-19.151-56.351-4.935-16.934 14.203-19.149 39.406-4.934 56.346zm17.788-41.024c.001-.001.002-.002.003-.002 8.439-7.083 21.048-6.027 28.171 2.469 7.089 8.446 6.026 21.048-2.468 28.171-8.444 7.087-21.049 6.026-28.171-2.468-7.106-8.467-6.006-21.066 2.465-28.17z"/><path d="m497.718 441.365c-16.971-14.242-42.17-11.976-56.349 4.932-14.212 16.935-12.01 42.142 4.932 56.349 16.936 14.213 42.143 12.009 56.348-4.932 14.212-16.935 12.012-42.139-4.931-56.349zm-10.391 43.495c-7.1 8.468-19.698 9.575-28.171 2.463-8.469-7.102-9.576-19.698-2.463-28.173 7.109-8.479 19.717-9.559 28.168-2.465.001 0 .002.001.003.002 8.468 7.101 9.576 19.698 2.463 28.173z"/><path d="m484.095 308.669c-.093-2.94-1.476-5.69-3.78-7.519-2.305-1.829-5.298-2.549-8.182-1.971l-60.09 12.05c-4.514.905-7.827 4.776-8.024 9.376-.557 13.319-.915 26.908-4.356 39.235l-45.478-39.728c1.212-6.264 1.825-12.667 1.825-19.108 0-40.122-23.809-75.893-60-91.671v-42.78c12.937 4.363 25.009 10.821 36.017 19.28 3.65 2.806 8.745 2.755 12.34-.121l47.85-38.28c2.296-1.837 3.668-4.592 3.749-7.533.081-2.94-1.136-5.767-3.328-7.728-7.006-6.269-14.511-12.108-22.309-17.357-4.583-3.083-10.795-1.869-13.88 2.712-3.084 4.582-1.87 10.796 2.712 13.88 3.762 2.532 7.449 5.217 11.032 8.032l-32.367 25.893c-15.073-10.356-31.724-17.651-49.599-21.719-6.254-1.422-12.219 3.336-12.219 9.751v49.656c-6.544-1.329-13.229-2.016-20-2.016s-13.457.687-20 2.016v-49.656c0-6.412-5.96-11.172-12.219-9.751-17.875 4.068-34.525 11.363-49.599 21.719l-32.367-25.893c32.478-25.508 72.585-39.435 114.185-39.435 8.001 0 16.052.516 23.929 1.532 5.476.704 10.491-3.16 11.198-8.637.708-5.478-3.16-10.491-8.637-11.198-8.723-1.126-17.635-1.697-26.49-1.697-50.509 0-99.031 18.527-136.628 52.168-2.192 1.961-3.409 4.788-3.328 7.728s1.453 5.695 3.749 7.533l47.85 38.28c3.595 2.876 8.689 2.926 12.34.121 11.007-8.459 23.08-14.917 36.017-19.28v42.774c-35.818 15.645-60 51.253-60 91.677 0 6.441.613 12.845 1.825 19.108l-45.477 39.728c-3.428-12.279-3.791-25.728-4.356-39.235-.197-4.6-3.51-8.471-8.024-9.376l-60.09-12.05c-2.885-.579-5.876.142-8.182 1.971-2.304 1.828-3.687 4.579-3.78 7.519-1.746 55.313 12.851 101.808 43.384 138.193 29.955 35.705 71.754 56.98 127.787 65.041 6.095.877 11.566-3.932 11.421-10.132l-1.43-61.27c-.107-4.604-3.345-8.539-7.842-9.532-13.813-3.048-26.38-4.812-37.518-9.822l39.886-34.958c15.719 9.715 33.674 14.815 52.397 14.815 18.729 0 36.69-5.104 52.398-14.814l39.919 34.987c-11.175 5.114-23.783 7.017-37.557 10.063-4.495.995-7.729 4.928-7.837 9.53l-1.43 61c-.132 5.612 4.386 10.234 9.997 10.234.474 0 .95-.033 1.424-.102 56.033-8.061 97.832-29.336 127.786-65.04 30.535-36.385 45.131-82.88 43.386-138.193zm-151.845-31.931c2.486 7.806 3.76 15.946 3.76 24.267 0 6.86-.864 13.657-2.567 20.201-1.465 5.628-3.549 11.052-6.179 16.191-.415-3.251-.921-6.145-1.521-8.69-3.182-13.479-12.44-23.606-20.608-32.541-11.119-12.163-13.104-15.883-10.617-19.906 3.533-5.72 18.737-5.435 37.732.478zm-125.737-38.577c1.983.058 3.948.096 5.866.12 5.335.068 14.192.182 16.332 1.708 1.041 3.063-3.446 8.168-8.965 14.024-6.221 6.601-13.271 14.082-11.728 23.585 1.698 10.514 10.278 14.796 15.405 17.354 1.467.732 3.87 1.931 4.563 2.646-.188 3.419-4.827 12.56-10.987 22.137-9.012-9.789-23.933-24.413-39.689-33.143 3.479-19.077 13.846-36.321 29.203-48.431zm-66.315 177.013c-4.752 4.166-4.499 11.664.552 15.491 14.851 11.254 30.651 14.57 48.527 18.225l.963 41.284c-45.071-8.444-79.042-26.882-103.611-56.167-25.099-29.91-38.132-67.825-38.815-112.839l40.54 8.129c.788 17.29 2.249 34.998 10.981 51.997 2.97 5.782 10.587 7.23 15.474 2.962l49.541-43.278c5.397 12.34 13.257 23.523 23.088 32.793zm115.812-34.169c-37.548 0-68.577-25.753-77.433-59.799-.975-3.746-1.666-7.577-2.086-11.454 17.74 12.812 33.386 32.245 33.58 32.488 4.085 5.122 11.906 4.995 15.827-.246.234-.313 5.797-7.773 11.21-16.729 10.937-18.097 11.438-25.995 10.652-30.863-1.706-10.506-10.283-14.787-15.407-17.344-1.243-.62-3.156-1.575-4.133-2.287 1.2-1.863 4.069-4.907 6.08-7.041 7.621-8.086 19.139-20.308 12.826-35.56-1.811-4.362-4.639-7.331-8.089-9.366 5.539-1.195 11.217-1.8 16.973-1.8 9.169 0 18.14 1.53 26.667 4.548 15.202 5.375 28.224 15.107 37.614 27.777-16.512-2.678-34.215-1.461-42.786 12.417-3.48 5.63-6.472 14.679-.962 25.82 3.196 6.461 8.362 12.111 13.831 18.094 6.842 7.484 13.917 15.224 15.904 23.64 1.002 4.249 2.18 12.494 2.381 27.927-14.503 12.668-32.852 19.778-52.649 19.778zm169.379 53.003c-24.566 29.283-58.542 47.722-103.608 56.166l.961-41.031c.091-.019.182-.038.272-.057 16.226-3.375 33.004-6.864 48.256-18.421 5.038-3.817 5.317-11.314.552-15.491l-47.237-41.401c9.88-9.304 17.695-20.421 23.095-32.787l49.531 43.269c4.886 4.267 12.504 2.821 15.474-2.962 8.732-16.999 10.193-34.708 10.981-51.997l40.54-8.129c-.684 45.015-13.717 82.93-38.817 112.841z"/><circle cx="325.01" cy="102.005" r="10"/></g></svg>